<svg width="156" height="137" viewBox="0 0 156 137" fill="none" xmlns="http://www.w3.org/2000/svg">
<path d="M145.5 30.786L154.5 33.786V24.286" stroke="#EAA727" stroke-width="3" stroke-linecap="round" stroke-linejoin="round" stroke-dasharray="6 6"/>
<path d="M1.50049 129.786L14.5005 134.786C14.5005 134.786 22.0415 136.228 26.5005 134.786C31.7817 133.078 37.5005 125.786 37.5005 125.786L47.0005 114.786C47.0005 114.786 52.6222 105.766 53.0005 99.286C53.3511 93.281 49.5005 84.286 49.5005 84.286L47.0005 70.786V55.786L50.5005 42.786L57.0005 29.786L65.5005 19.286L75.5005 11.286L87.5005 5.786L98.5005 1.786C98.5005 1.786 107.034 0.325078 110 3.786C112.445 6.63764 111.5 13.286 111.5 13.286C111.5 13.286 105.458 16.5837 105 20.286C104.469 24.5888 107.514 27.5822 111.5 29.286C116.117 31.2589 124 26.286 124 26.286L134.5 21.786C134.5 21.786 142.176 18.4 146 20.786C148.899 22.5939 150.5 28.286 150.5 28.286" stroke="#EAA727" stroke-width="3" stroke-linecap="round" stroke-linejoin="round" stroke-dasharray="6 6"/>
</svg>
