<svg width="222" height="189" viewBox="0 0 222 189" fill="none" xmlns="http://www.w3.org/2000/svg">
<path d="M1.5 15.6761L8 11.1761L19.5 3.17614C19.5 3.17614 27.7596 0.854109 33 1.67614C39.2982 2.6641 47.5 9.17614 47.5 9.17614L55.5 22.6761L59.5 38.6761V52.6761L62.5 64.1761L66 73.6761L73.5 85.1761L85 92.1761H96L107.5 88.1761L115 83.1761C115 83.1761 123.328 79.0416 128 81.1761C132.631 83.2921 135 92.1761 135 92.1761L132 107.176L133 123.176L137.5 135.676L146.5 148.176L158 157.176L170 161.676H182C182 161.676 191.569 157.904 197 160.176C201.331 161.988 205.5 168.676 205.5 168.676L213.5 179.676L217 187.176M208 183.176L217 187.176L220 179.676" stroke="#EAA727" stroke-width="3" stroke-linecap="round" stroke-linejoin="round" stroke-dasharray="6 6"/>
</svg>
