<svg width="87" height="180" viewBox="0 0 87 180" fill="none" xmlns="http://www.w3.org/2000/svg">
<path d="M84.9717 173C84.9717 173 80.3847 176.404 76.9717 177.5C71.7661 179.171 62.9717 177.5 62.9717 177.5C62.9717 177.5 58.2362 175.642 56.9717 173C55.7915 170.534 55.7915 168.466 56.9717 166C58.2362 163.358 61.8092 164.188 62.9717 161.5C63.9018 159.349 63.9748 157.618 62.9717 155.5C61.7662 152.955 59.6795 152.274 56.9717 151.5C54.531 150.803 52.9906 151.186 50.4717 151.5C45.9359 152.066 39.4717 155.5 39.4717 155.5L29.4717 161.5C29.4717 161.5 24.0668 166.287 19.9717 166C16.396 165.749 11.9717 161.5 11.9717 161.5C11.9717 161.5 8.87736 158.167 7.97174 155.5C6.84147 152.172 8.40375 149.988 7.97174 146.5C7.1515 139.877 3.1766 137.064 1.97174 130.5C0.737835 123.778 1.97174 113 1.97174 113L7.97174 100.5L19.9717 79.5L29.4717 66.5C29.4717 66.5 34.7115 60.6612 35.4717 56C36.3485 50.6247 31.9717 42.5 31.9717 42.5C31.9717 42.5 29.5523 36.5246 29.4717 32.5C29.3382 25.8281 35.4717 16.5 35.4717 16.5L44.4717 7.5L56.9717 1.5L72.9717 4.5L84.9717 14" stroke="#EAA727" stroke-width="3" stroke-linecap="round" stroke-linejoin="round" stroke-dasharray="6 6"/>
</svg>
